<svg id="visual" viewBox="0 0 1920 1080" width="1920" height="1080" xmlns="http://www.w3.org/2000/svg" xmlns:xlink="http://www.w3.org/1999/xlink" version="1.1"><path d="M0 131L29.2 122C58.3 113 116.7 95 174.8 91.3C233 87.7 291 98.3 349.2 100C407.3 101.7 465.7 94.3 523.8 101.5C582 108.7 640 130.3 698.2 130.3C756.3 130.3 814.7 108.7 872.8 103.3C931 98 989 109 1047.2 123.5C1105.3 138 1163.7 156 1221.8 150.5C1280 145 1338 116 1396.2 99.8C1454.3 83.7 1512.7 80.3 1570.8 94.8C1629 109.3 1687 141.7 1745.2 154.2C1803.3 166.7 1861.7 159.3 1890.8 155.7L1920 152L1920 0L1890.8 0C1861.7 0 1803.3 0 1745.2 0C1687 0 1629 0 1570.8 0C1512.7 0 1454.3 0 1396.2 0C1338 0 1280 0 1221.8 0C1163.7 0 1105.3 0 1047.2 0C989 0 931 0 872.8 0C814.7 0 756.3 0 698.2 0C640 0 582 0 523.8 0C465.7 0 407.3 0 349.2 0C291 0 233 0 174.8 0C116.7 0 58.3 0 29.2 0L0 0Z" fill="#000000"></path><path d="M0 325L29.2 301.7C58.3 278.3 116.7 231.7 174.8 217.3C233 203 291 221 349.2 255.2C407.3 289.3 465.7 339.7 523.8 359.3C582 379 640 368 698.2 355.3C756.3 342.7 814.7 328.3 872.8 328.3C931 328.3 989 342.7 1047.2 357.2C1105.3 371.7 1163.7 386.3 1221.8 368.3C1280 350.3 1338 299.7 1396.2 283.3C1454.3 267 1512.7 285 1570.8 308.5C1629 332 1687 361 1745.2 362.8C1803.3 364.7 1861.7 339.3 1890.8 326.7L1920 314L1920 150L1890.8 153.7C1861.7 157.3 1803.3 164.7 1745.2 152.2C1687 139.7 1629 107.3 1570.8 92.8C1512.7 78.3 1454.3 81.7 1396.2 97.8C1338 114 1280 143 1221.8 148.5C1163.7 154 1105.3 136 1047.2 121.5C989 107 931 96 872.8 101.3C814.7 106.7 756.3 128.3 698.2 128.3C640 128.3 582 106.7 523.8 99.5C465.7 92.3 407.3 99.7 349.2 98C291 96.3 233 85.7 174.8 89.3C116.7 93 58.3 111 29.2 120L0 129Z" fill="#000000"></path><path d="M0 552L29.2 552C58.3 552 116.7 552 174.8 537.5C233 523 291 494 349.2 512C407.3 530 465.7 595 523.8 649C582 703 640 746 698.2 719C756.3 692 814.7 595 872.8 566.3C931 537.7 989 577.3 1047.2 597.2C1105.3 617 1163.7 617 1221.8 600.7C1280 584.3 1338 551.7 1396.2 542.7C1454.3 533.7 1512.7 548.3 1570.8 568.2C1629 588 1687 613 1745.2 609.3C1803.3 605.7 1861.7 573.3 1890.8 557.2L1920 541L1920 312L1890.8 324.7C1861.7 337.3 1803.3 362.7 1745.2 360.8C1687 359 1629 330 1570.8 306.5C1512.7 283 1454.3 265 1396.2 281.3C1338 297.7 1280 348.3 1221.8 366.3C1163.7 384.3 1105.3 369.7 1047.2 355.2C989 340.7 931 326.3 872.8 326.3C814.7 326.3 756.3 340.7 698.2 353.3C640 366 582 377 523.8 357.3C465.7 337.7 407.3 287.3 349.2 253.2C291 219 233 201 174.8 215.3C116.7 229.7 58.3 276.3 29.2 299.7L0 323Z" fill="#000000"></path><path d="M0 692L29.2 688.5C58.3 685 116.7 678 174.8 658.2C233 638.3 291 605.7 349.2 620C407.3 634.3 465.7 695.7 523.8 748C582 800.3 640 843.7 698.2 827.5C756.3 811.3 814.7 735.7 872.8 726.7C931 717.7 989 775.3 1047.2 798.7C1105.3 822 1163.7 811 1221.8 791.2C1280 771.3 1338 742.7 1396.2 728.3C1454.3 714 1512.7 714 1570.8 730.2C1629 746.3 1687 778.7 1745.2 775C1803.3 771.3 1861.7 731.7 1890.8 711.8L1920 692L1920 539L1890.8 555.2C1861.7 571.3 1803.3 603.7 1745.2 607.3C1687 611 1629 586 1570.8 566.2C1512.7 546.3 1454.3 531.7 1396.2 540.7C1338 549.7 1280 582.3 1221.8 598.7C1163.7 615 1105.3 615 1047.2 595.2C989 575.3 931 535.7 872.8 564.3C814.7 593 756.3 690 698.2 717C640 744 582 701 523.8 647C465.7 593 407.3 528 349.2 510C291 492 233 521 174.8 535.5C116.7 550 58.3 550 29.2 550L0 550Z" fill="#181818"></path><path d="M0 1081L29.2 1081C58.3 1081 116.7 1081 174.8 1081C233 1081 291 1081 349.2 1081C407.3 1081 465.7 1081 523.8 1081C582 1081 640 1081 698.2 1081C756.3 1081 814.7 1081 872.8 1081C931 1081 989 1081 1047.2 1081C1105.3 1081 1163.7 1081 1221.8 1081C1280 1081 1338 1081 1396.2 1081C1454.3 1081 1512.7 1081 1570.8 1081C1629 1081 1687 1081 1745.2 1081C1803.3 1081 1861.7 1081 1890.8 1081L1920 1081L1920 690L1890.8 709.8C1861.7 729.7 1803.3 769.3 1745.2 773C1687 776.7 1629 744.3 1570.8 728.2C1512.7 712 1454.3 712 1396.2 726.3C1338 740.7 1280 769.3 1221.8 789.2C1163.7 809 1105.3 820 1047.2 796.7C989 773.3 931 715.7 872.8 724.7C814.7 733.7 756.3 809.3 698.2 825.5C640 841.7 582 798.3 523.8 746C465.7 693.7 407.3 632.3 349.2 618C291 603.7 233 636.3 174.8 656.2C116.7 676 58.3 683 29.2 686.5L0 690Z" fill="#282828"></path></svg>