<svg id="visual" viewBox="0 0 1920 1080" width="1920" height="1080" xmlns="http://www.w3.org/2000/svg" xmlns:xlink="http://www.w3.org/1999/xlink" version="1.1"><rect x="0" y="0" width="1920" height="1080" fill="#000000"></rect><defs><linearGradient id="grad1_0" x1="43.8%" y1="0%" x2="100%" y2="100%"><stop offset="14.444444444444446%" stop-color="#c50d00" stop-opacity="1"></stop><stop offset="85.55555555555554%" stop-color="#c50d00" stop-opacity="1"></stop></linearGradient></defs><defs><linearGradient id="grad1_1" x1="43.8%" y1="0%" x2="100%" y2="100%"><stop offset="14.444444444444446%" stop-color="#c50d00" stop-opacity="1"></stop><stop offset="85.55555555555554%" stop-color="#a40000" stop-opacity="1"></stop></linearGradient></defs><defs><linearGradient id="grad1_2" x1="43.8%" y1="0%" x2="100%" y2="100%"><stop offset="14.444444444444446%" stop-color="#840000" stop-opacity="1"></stop><stop offset="85.55555555555554%" stop-color="#a40000" stop-opacity="1"></stop></linearGradient></defs><defs><linearGradient id="grad1_3" x1="43.8%" y1="0%" x2="100%" y2="100%"><stop offset="14.444444444444446%" stop-color="#840000" stop-opacity="1"></stop><stop offset="85.55555555555554%" stop-color="#670000" stop-opacity="1"></stop></linearGradient></defs><defs><linearGradient id="grad1_4" x1="43.8%" y1="0%" x2="100%" y2="100%"><stop offset="14.444444444444446%" stop-color="#000000" stop-opacity="1"></stop><stop offset="85.55555555555554%" stop-color="#670000" stop-opacity="1"></stop></linearGradient></defs><defs><linearGradient id="grad2_0" x1="0%" y1="0%" x2="56.3%" y2="100%"><stop offset="14.444444444444446%" stop-color="#c50d00" stop-opacity="1"></stop><stop offset="85.55555555555554%" stop-color="#c50d00" stop-opacity="1"></stop></linearGradient></defs><defs><linearGradient id="grad2_1" x1="0%" y1="0%" x2="56.3%" y2="100%"><stop offset="14.444444444444446%" stop-color="#a40000" stop-opacity="1"></stop><stop offset="85.55555555555554%" stop-color="#c50d00" stop-opacity="1"></stop></linearGradient></defs><defs><linearGradient id="grad2_2" x1="0%" y1="0%" x2="56.3%" y2="100%"><stop offset="14.444444444444446%" stop-color="#a40000" stop-opacity="1"></stop><stop offset="85.55555555555554%" stop-color="#840000" stop-opacity="1"></stop></linearGradient></defs><defs><linearGradient id="grad2_3" x1="0%" y1="0%" x2="56.3%" y2="100%"><stop offset="14.444444444444446%" stop-color="#670000" stop-opacity="1"></stop><stop offset="85.55555555555554%" stop-color="#840000" stop-opacity="1"></stop></linearGradient></defs><defs><linearGradient id="grad2_4" x1="0%" y1="0%" x2="56.3%" y2="100%"><stop offset="14.444444444444446%" stop-color="#670000" stop-opacity="1"></stop><stop offset="85.55555555555554%" stop-color="#000000" stop-opacity="1"></stop></linearGradient></defs><g transform="translate(1920, 0)"><path d="M0 972C-87.5 957.6 -175.1 943.3 -239.9 895.4C-304.8 847.5 -346.9 766.2 -424.5 735.3C-502.1 704.3 -615.1 723.9 -687.3 687.3C-759.6 650.7 -791.1 558.1 -825.3 476.5C-859.6 394.9 -896.6 324.5 -921.5 246.9C-946.4 169.3 -959.2 84.7 -972 0L0 0Z" fill="#590000"></path><path d="M0 777.6C-70 766.1 -140.1 754.6 -191.9 716.3C-243.8 678 -277.5 612.9 -339.6 588.2C-401.7 563.5 -492 579.1 -549.8 549.8C-607.6 520.6 -632.9 446.5 -660.3 381.2C-687.7 315.9 -717.3 259.6 -737.2 197.5C-757.1 135.5 -767.4 67.7 -777.6 0L0 0Z" fill="#750000"></path><path d="M0 583.2C-52.5 574.6 -105 566 -144 537.2C-182.9 508.5 -208.2 459.7 -254.7 441.2C-301.2 422.6 -369 434.3 -412.4 412.4C-455.7 390.4 -474.6 334.8 -495.2 285.9C-515.7 237 -538 194.7 -552.9 148.1C-567.8 101.6 -575.5 50.8 -583.2 0L0 0Z" fill="#940000"></path><path d="M0 388.8C-35 383.1 -70 377.3 -96 358.2C-121.9 339 -138.8 306.5 -169.8 294.1C-200.8 281.7 -246 289.6 -274.9 274.9C-303.8 260.3 -316.4 223.2 -330.1 190.6C-343.8 158 -358.6 129.8 -368.6 98.8C-378.6 67.7 -383.7 33.9 -388.8 0L0 0Z" fill="#b40000"></path><path d="M0 194.4C-17.5 191.5 -35 188.7 -48 179.1C-61 169.5 -69.4 153.2 -84.9 147.1C-100.4 140.9 -123 144.8 -137.5 137.5C-151.9 130.1 -158.2 111.6 -165.1 95.3C-171.9 79 -179.3 64.9 -184.3 49.4C-189.3 33.9 -191.8 16.9 -194.4 0L0 0Z" fill="#c50d00"></path></g><g transform="translate(0, 1080)"><path d="M0 -972C83.8 -954.5 167.6 -936.9 244.1 -910.9C320.5 -884.8 389.5 -850.3 473 -819.3C556.5 -788.2 654.4 -760.7 687.3 -687.3C720.2 -613.9 688 -494.7 724.9 -418.5C761.8 -342.3 867.8 -309.2 920.5 -246.7C973.2 -184.1 972.6 -92 972 0L0 0Z" fill="#590000"></path><path d="M0 -777.6C67.1 -763.6 134.1 -749.5 195.3 -728.7C256.4 -707.9 311.6 -680.2 378.4 -655.4C445.2 -630.6 523.6 -608.6 549.8 -549.8C576.1 -491.1 550.4 -395.7 579.9 -334.8C609.4 -273.9 694.3 -247.4 736.4 -197.3C778.6 -147.3 778.1 -73.6 777.6 0L0 0Z" fill="#750000"></path><path d="M0 -583.2C50.3 -572.7 100.6 -562.1 146.4 -546.5C192.3 -530.9 233.7 -510.2 283.8 -491.6C333.9 -472.9 392.7 -456.4 412.4 -412.4C432.1 -368.4 412.8 -296.8 434.9 -251.1C457.1 -205.4 520.7 -185.5 552.3 -148C583.9 -110.4 583.6 -55.2 583.2 0L0 0Z" fill="#940000"></path><path d="M0 -388.8C33.5 -381.8 67.1 -374.8 97.6 -364.3C128.2 -353.9 155.8 -340.1 189.2 -327.7C222.6 -315.3 261.8 -304.3 274.9 -274.9C288.1 -245.6 275.2 -197.9 289.9 -167.4C304.7 -136.9 347.1 -123.7 368.2 -98.7C389.3 -73.6 389 -36.8 388.8 0L0 0Z" fill="#b40000"></path><path d="M0 -194.4C16.8 -190.9 33.5 -187.4 48.8 -182.2C64.1 -177 77.9 -170.1 94.6 -163.9C111.3 -157.6 130.9 -152.1 137.5 -137.5C144 -122.8 137.6 -98.9 145 -83.7C152.4 -68.5 173.6 -61.8 184.1 -49.3C194.6 -36.8 194.5 -18.4 194.4 0L0 0Z" fill="#c50d00"></path></g></svg>