<svg id="visual" viewBox="0 0 1920 1080" width="1920" height="1080" xmlns="http://www.w3.org/2000/svg" xmlns:xlink="http://www.w3.org/1999/xlink" version="1.1"><rect x="0" y="0" width="1920" height="1080" fill="#000000"></rect><path d="M0 266L45.7 300.7C91.3 335.3 182.7 404.7 274.2 440.2C365.7 475.7 457.3 477.3 548.8 428.7C640.3 380 731.7 281 823 244.2C914.3 207.3 1005.7 232.7 1097 279C1188.3 325.3 1279.7 392.7 1371.2 417.5C1462.7 442.3 1554.3 424.7 1645.8 400.3C1737.3 376 1828.7 345 1874.3 329.5L1920 314L1920 1081L1874.3 1081C1828.7 1081 1737.3 1081 1645.8 1081C1554.3 1081 1462.7 1081 1371.2 1081C1279.7 1081 1188.3 1081 1097 1081C1005.7 1081 914.3 1081 823 1081C731.7 1081 640.3 1081 548.8 1081C457.3 1081 365.7 1081 274.2 1081C182.7 1081 91.3 1081 45.7 1081L0 1081Z" fill="#c50d00"></path><path d="M0 645L45.7 631.5C91.3 618 182.7 591 274.2 569.2C365.7 547.3 457.3 530.7 548.8 534.2C640.3 537.7 731.7 561.3 823 535C914.3 508.7 1005.7 432.3 1097 408.5C1188.3 384.7 1279.7 413.3 1371.2 436.5C1462.7 459.7 1554.3 477.3 1645.8 498.8C1737.3 520.3 1828.7 545.7 1874.3 558.3L1920 571L1920 1081L1874.3 1081C1828.7 1081 1737.3 1081 1645.8 1081C1554.3 1081 1462.7 1081 1371.2 1081C1279.7 1081 1188.3 1081 1097 1081C1005.7 1081 914.3 1081 823 1081C731.7 1081 640.3 1081 548.8 1081C457.3 1081 365.7 1081 274.2 1081C182.7 1081 91.3 1081 45.7 1081L0 1081Z" fill="#df5e40"></path><path d="M0 517L45.7 531.3C91.3 545.7 182.7 574.3 274.2 600.2C365.7 626 457.3 649 548.8 648.2C640.3 647.3 731.7 622.7 823 602.7C914.3 582.7 1005.7 567.3 1097 577.2C1188.3 587 1279.7 622 1371.2 640.3C1462.7 658.7 1554.3 660.3 1645.8 639.5C1737.3 618.7 1828.7 575.3 1874.3 553.7L1920 532L1920 1081L1874.3 1081C1828.7 1081 1737.3 1081 1645.8 1081C1554.3 1081 1462.7 1081 1371.2 1081C1279.7 1081 1188.3 1081 1097 1081C1005.7 1081 914.3 1081 823 1081C731.7 1081 640.3 1081 548.8 1081C457.3 1081 365.7 1081 274.2 1081C182.7 1081 91.3 1081 45.7 1081L0 1081Z" fill="#f2957c"></path><path d="M0 787L45.7 799.5C91.3 812 182.7 837 274.2 825C365.7 813 457.3 764 548.8 736C640.3 708 731.7 701 823 691.5C914.3 682 1005.7 670 1097 685.3C1188.3 700.7 1279.7 743.3 1371.2 750.8C1462.7 758.3 1554.3 730.7 1645.8 735C1737.3 739.3 1828.7 775.7 1874.3 793.8L1920 812L1920 1081L1874.3 1081C1828.7 1081 1737.3 1081 1645.8 1081C1554.3 1081 1462.7 1081 1371.2 1081C1279.7 1081 1188.3 1081 1097 1081C1005.7 1081 914.3 1081 823 1081C731.7 1081 640.3 1081 548.8 1081C457.3 1081 365.7 1081 274.2 1081C182.7 1081 91.3 1081 45.7 1081L0 1081Z" fill="#fdcabc"></path><path d="M0 874L45.7 869C91.3 864 182.7 854 274.2 846.2C365.7 838.3 457.3 832.7 548.8 828.8C640.3 825 731.7 823 823 825.2C914.3 827.3 1005.7 833.7 1097 859.8C1188.3 886 1279.7 932 1371.2 931.3C1462.7 930.7 1554.3 883.3 1645.8 865.5C1737.3 847.7 1828.7 859.3 1874.3 865.2L1920 871L1920 1081L1874.3 1081C1828.7 1081 1737.3 1081 1645.8 1081C1554.3 1081 1462.7 1081 1371.2 1081C1279.7 1081 1188.3 1081 1097 1081C1005.7 1081 914.3 1081 823 1081C731.7 1081 640.3 1081 548.8 1081C457.3 1081 365.7 1081 274.2 1081C182.7 1081 91.3 1081 45.7 1081L0 1081Z" fill="#ffffff"></path></svg>